# xmcd CD database file
#
# Track frame offsets:
#	150
#	18197
#	47772
#	73327
#	93857
#	119350
#	145887
#	170947
#	196057
#	215545
#	235085
#	263627
#	288495
#	312987
#
# Disc length: 4357 seconds
#
# Revision: 0
# Processed by: cddbd v1.5.1PL2 Copyright (c) Steve Scherf et al.
# Submitted via: CDex 1.51
#
DISCID=ce11030e
DTITLE=The Three Sounds - Blue Note Years Vol 18
DYEAR=1900
DGENRE=Jazz
TTITLE0=Besame Mucho
TTITLE1=Love For Sale
TTITLE2=Sumemrtime
TTITLE3=Tenderly
TTITLE4=Now's The Time
TTITLE5=Satin Doll
TTITLE6=It Could Happen To You
TTITLE7=On Green Dolphin Street
TTITLE8=Makin' Whoopee
TTITLE9=St.Thomas
TTITLE10=Just In Time
TTITLE11=Stella By Starlight
TTITLE12=For All We Know
TTITLE13=You Are My Sunshine
EXTD=
EXTT0=
EXTT1=
EXTT2=
EXTT3=
EXTT4=
EXTT5=
EXTT6=
EXTT7=
EXTT8=
EXTT9=
EXTT10=
EXTT11=
EXTT12=
EXTT13=
PLAYORDER=
